PathFileType	4	(X/Y/Z)	/Users/mathieubourgeois/Desktop/Analyse/Traitement/Sujet_05/Data/Transformed_Sujet_05_velo_80.trc
DataRate	CameraRate	NumFrames	NumMarkers	Units	OrigDataRate	OrigDataStartFrame	OrigNumFrames
120.000000	120.000000	6	36	mm	120.000000	494	1976
Frame#	Time	RFHD			RANE			STRN			LANI			LKNE			T10			RHUM			RWRB			C7			LFWT			LTOE			RTOE			LWRA			LBWT			RBWT			RFWT			LKNI			RKNI			RKNE			LANE			RANI			LHEE			RHEE			LHUM			LRAD			RRAD			RWRA			LWRB			LFHD			LBHD			RBHD			RSHO			LSHO			CLAV			LCAR			RCAR			
		X1	Y1	Z1	X2	Y2	Z2	X3	Y3	Z3	X4	Y4	Z4	X5	Y5	Z5	X6	Y6	Z6	X7	Y7	Z7	X8	Y8	Z8	X9	Y9	Z9	X10	Y10	Z10	X11	Y11	Z11	X12	Y12	Z12	X13	Y13	Z13	X14	Y14	Z14	X15	Y15	Z15	X16	Y16	Z16	X17	Y17	Z17	X18	Y18	Z18	X19	Y19	Z19	X20	Y20	Z20	X21	Y21	Z21	X22	Y22	Z22	X23	Y23	Z23	X24	Y24	Z24	X25	Y25	Z25	X26	Y26	Z26	X27	Y27	Z27	X28	Y28	Z28	X29	Y29	Z29	X30	Y30	Z30	X31	Y31	Z31	X32	Y32	Z32	X33	Y33	Z33	X34	Y34	Z34	X35	Y35	Z35	X36	Y36	Z36	

495	4.116666666666666	140.7190551757812	1356.235107421875	124.734260559082	-345.0068664550781	552.0253295898438	189.2425994873046	-203.4652709960938	1150.491455078125	31.08977127075186	-129.3027648925781	315.4384460449219	-60.68342590332035	-146.0236206054687	711.1871948242188	-140.3133850097657	-332.9406433105469	1356.21435546875	36.66694641113268	22.65295028686521	1033.7265625	198.3170166015624	241.3443756103515	891.5557250976562	247.0553894042968	-102.8542709350586	1419.1669921875	34.67377471923818	-359.767578125	1070.399169921875	-90.73094940185558	19.9830551147461	214.1619110107422	-91.77349090576173	-262.0050659179688	369.3044128417969	156.6851348876953	273.3715209960938	931.8804931640625	-149.2047882080078	-533.8656616210938	1100.743041992188	-28.88526153564466	-528.0653686523438	1113.297485351562	107.1973648071288	-366.5718688964844	1074.592407226562	154.5588378906249	-139.8086395263672	676.525634765625	-36.93650436401373	-75.99100494384767	786.518310546875	122.0974655151367	-81.80109405517581	825.6216430664062	229.2993164062499	-161.8841552734375	319.6404418945312	-138.224105834961	-315.4459838867188	535.8151245117188	108.7217330932616	-212.1051635742188	282.4647521972656	-95.57175445556645	-406.241943359375	567.9444580078125	142.4300537109374	17.68892669677736	1043.98583984375	-151.898666381836	67.85893249511722	1074.512329101562	-191.546127319336	62.759407043457	1066.036865234375	250.2130126953124	273.8276672363281	934.276611328125	194.4772491455078	238.6341552734375	882.4884033203125	-182.891098022461	158.7192687988281	1354.052490234375	-21.15723037719733	38.79455947875977	1447.513305664062	-43.40319061279305	15.93046951293944	1473.97998046875	89.00149536132804	-33.28564071655276	1325.071655273438	182.6193695068359	-64.05234527587889	1331.302001953125	-118.9857406616212	-85.58889007568359	1273.654052734375	36.3294143676757	315.7426147460938	925.2506713867188	-226.7559661865235	319.2769775390624	929.5875244140625	283.1847839355469	
496	4.125	141.0775909423828	1356.793090820312	126.2435226440429	-338.8419494628906	561.1867065429688	189.2541046142578	-202.6159210205078	1150.727783203125	31.64162063598623	-136.4440155029297	307.0035095214844	-60.70680618286136	-153.6662139892578	703.0570068359375	-139.920883178711	-332.3423461914062	1356.23583984375	36.63980484008776	22.79409408569333	1033.812866210938	198.8958740234374	241.4482879638672	891.4987182617188	247.2012786865234	-102.3286590576172	1419.455322265625	35.64944076538076	-358.8615417480469	1069.676635742188	-91.02773284912121	11.94061756134034	203.7440032958984	-91.66480255126955	-252.9811553955078	379.9651489257812	156.7592773437499	273.6248474121094	931.792724609375	-149.0483856201172	-532.8961791992188	1100.5771484375	-29.47517204284681	-527.3038940429688	1113.468017578125	106.5659866333006	-366.0439758300781	1075.236083984375	153.8900299072264	-147.8362884521484	668.3041381835938	-36.83863449096686	-69.79830932617189	796.9046020507812	122.598777770996	-77.06748962402347	835.5216064453125	229.8524322509765	-169.5213470458984	311.3059387207031	-137.9993591308594	-309.0904235839844	545.8757934570312	109.0216217041015	-219.5877990722656	274.7009582519531	-95.17827606201176	-400.539306640625	576.2059326171875	142.5952758789062	18.20413017272951	1044.441650390625	-151.5848693847657	68.4645690917969	1074.908203125	-191.1785430908204	62.87821578979489	1066.034301757812	250.7852172851562	273.8826293945312	934.281005859375	194.6820983886718	238.7911376953125	882.4928588867188	-182.764892578125	159.4770965576172	1354.805297851562	-19.6069126129151	39.43220520019532	1448.129516601562	-42.02960205078133	16.2024803161621	1474.388061523438	90.34034729003898	-33.19015884399416	1325.216430664062	183.6725769042968	-63.1897735595703	1331.853393554688	-118.0103912353517	-84.8868408203125	1274.067138671875	37.19648742675773	315.9242553710938	925.2515258789062	-226.5674896240235	319.3945007324218	929.44921875	283.3127746582031	
497	4.133333333333333	141.5082702636718	1357.375610351562	127.6499557495116	-332.2752075195312	569.6026000976562	189.2878417968749	-201.7941589355469	1150.93896484375	32.21735763549795	-144.1872100830078	299.2581176757812	-60.70423507690433	-161.2543640136718	695.5209350585938	-139.5700073242188	-331.6897277832031	1356.24658203125	36.70765686035143	22.93145942687986	1033.9140625	199.3748321533203	241.5459747314453	891.4306030273438	247.3849182128906	-101.7778244018555	1419.744873046875	36.6544075012206	-357.9641723632812	1068.98974609375	-91.36292266845714	3.120117902755748	193.9099273681641	-91.69299316406251	-241.4352264404297	391.2039489746094	158.2122192382812	273.8759460449219	931.711181640625	-148.8609161376953	-531.961669921875	1100.490356445312	-29.86936378479017	-526.5441284179688	1113.690307617188	106.0443954467772	-365.4758605957031	1075.903442382812	153.2771759033202	-155.7663116455078	660.640625	-36.26907348632819	-65.39443969726564	806.8929443359375	122.9265670776367	-72.54825592041018	845.3838500976562	230.3377380371093	-177.6947937011718	303.6228332519531	-137.7668609619141	-302.5567626953125	554.8117065429688	109.020881652832	-227.7051391601562	267.740234375	-94.74768829345707	-394.4537963867188	583.5787963867188	142.8277282714843	18.67263984680178	1044.875244140625	-151.3456726074219	69.00164794921878	1075.365600585938	-190.7794952392579	63.02900695800778	1066.015869140625	251.3555297851562	273.9682006835938	934.2545166015625	194.9039001464843	238.937973022461	882.5159301757812	-182.6113586425782	160.2349090576172	1355.623779296875	-18.16774368286139	40.09606933593751	1448.754150390625	-40.74928665161141	16.50160026550292	1474.817626953125	91.61157226562491	-32.97534561157229	1325.421264648438	184.704116821289	-62.33677291870116	1332.43310546875	-117.0291748046876	-84.17860412597656	1274.443725585938	38.01897048950187	316.0956726074219	925.2797241210938	-226.4006042480469	319.5132446289062	929.299072265625	283.4609985351562	
498	4.141666666666667	142.0069122314453	1358.067504882812	128.9463653564453	-325.3042602539062	577.2529907226562	189.3215179443359	-200.7000274658203	1151.150512695312	32.70953750610342	-152.4771270751953	292.2236633300781	-60.6706924438477	-168.674560546875	688.67822265625	-139.2795867919922	-331.0272521972656	1356.244750976562	36.84502410888659	23.08261680603025	1034.0146484375	199.9509887695312	241.6368408203125	891.3453369140625	247.5785522460937	-101.2283477783203	1420.02734375	37.57896423339834	-357.1698913574219	1068.331420898438	-91.60070800781261	-6.57603359222411	184.8711395263672	-92.04884338378908	-230.2615661621094	400.51611328125	157.6698913574218	274.0887451171875	931.658935546875	-148.6528625488282	-531.0578002929688	1100.472534179688	-30.14598655700697	-525.752685546875	1113.9736328125	105.7338714599608	-364.8757629394531	1076.5322265625	152.6647644042968	-164.4718475341797	653.3111572265625	-34.50376510620124	-60.36355590820314	815.9414672851562	122.9598083496093	-68.25014495849612	855.167724609375	230.6794128417968	-186.331298828125	296.7454833984375	-137.5171356201172	-295.5439453125	563.0802612304688	108.9820480346679	-236.3249053955078	261.4885559082031	-94.17004394531254	-387.9541931152344	590.1043090820312	143.0552673339843	19.09969711303713	1045.287109375	-151.0296173095704	69.54546356201175	1075.746459960938	-190.414779663086	63.20883941650388	1066.008422851562	251.9673919677734	274.0676574707031	934.2239379882812	195.1404266357422	239.0792388916016	882.5448608398438	-182.4095306396485	160.9892120361328	1356.504760742188	-16.83141517639166	40.7146224975586	1449.401977539062	-39.51270675659188	16.80772781372069	1475.240966796875	92.80342102050773	-32.69886016845705	1325.629638671875	185.7480926513671	-61.50795364379881	1333.041015625	-116.1949462890626	-83.48868560791016	1274.781372070312	38.84090423583976	316.2271118164062	925.2982177734375	-226.2133483886719	319.6564025878906	929.1482543945312	283.6569519042969	
499	4.15	142.5173034667968	1358.735595703125	130.1539764404296	-317.9825134277344	584.1227416992188	189.3898162841796	-199.8412628173828	1151.274536132812	33.20947647094717	-161.0313415527344	286.0411376953125	-60.78240585327152	-175.6776733398437	682.5386962890625	-138.9203033447266	-330.3548889160156	1356.2412109375	37.0926589965819	23.25542640686033	1034.0986328125	200.5082702636718	241.7127685546875	891.2587280273438	247.7869567871093	-100.7055053710938	1420.352294921875	38.48909378051748	-356.4754333496094	1067.822143554688	-91.76272583007824	-17.24318885803222	176.9141235351562	-92.93637084960939	-219.065170288086	409.6146850585938	157.7588806152343	274.2417297363281	931.628173828125	-148.4477844238282	-530.2442626953125	1100.531860351562	-30.29023551940931	-524.9508666992188	1114.33056640625	105.5038833618163	-364.25390625	1077.155029296875	152.2318420410155	-172.171630859375	647.4336547851562	-32.8759498596192	-57.3002052307129	824.7547607421875	123.2199478149413	-64.23701477050784	864.8082275390625	230.9060058593749	-195.52392578125	290.6710510253906	-137.2522277832032	-288.1468505859375	570.619873046875	109.0034866333007	-245.5133361816406	256.1800231933594	-93.74788665771489	-381.0609436035156	595.7307739257812	143.2759246826171	19.52669525146486	1045.689331054688	-150.7252655029297	70.01096343994143	1076.130737304688	-190.0608825683594	63.3556098937988	1065.9892578125	252.526138305664	274.1656799316406	934.1583862304688	195.3798217773437	239.2014770507813	882.574462890625	-182.2436828613282	161.7740936279297	1357.426025390625	-15.63359832763678	41.32294464111329	1450.036865234375	-38.41439056396492	17.12094116210936	1475.72216796875	93.90511322021476	-32.3877639770508	1325.82373046875	186.6719970703124	-60.74625396728514	1333.630126953125	-115.3594055175782	-82.70245361328125	1275.161499023438	39.62419509887687	316.3498229980469	925.334228515625	-226.0324859619141	319.8016967773437	928.999755859375	283.8774719238281	
500	4.158333333333333	143.0626525878906	1359.513427734375	131.2514343261718	-310.9182434082031	590.2025146484375	189.9427032470703	-198.9920959472656	1151.470458984375	33.72117233276358	-168.7388916015625	280.8258056640625	-61.61223602294925	-182.3543243408203	677.294677734375	-138.6719207763672	-329.6464233398438	1356.216918945312	37.46326828002917	23.42183113098142	1034.173095703125	200.9997863769531	241.8209686279297	891.1564331054688	248.0006866455078	-100.215202331543	1420.65771484375	39.39443206787099	-355.9514465332031	1067.416259765625	-91.87224578857433	-28.0033893585205	169.2462005615234	-93.18518066406251	-207.2351379394532	418.0885314941406	157.9276275634765	274.3649597167969	931.6157836914062	-148.2462463378907	-529.5013427734375	1100.672607421875	-30.33269691467298	-524.13330078125	1114.749633789062	105.4728393554686	-363.7557067871094	1077.93798828125	152.1232299804686	-179.0627136230469	642.5609741210938	-32.18669128417975	-49.03603744506837	836.0951538085938	123.4366455078124	-60.50022125244143	874.3060302734375	230.9953918457031	-204.9799499511718	285.4186706542969	-137.1076049804688	-280.5476989746094	576.7050170898438	109.1231384277343	-255.1088104248047	251.7846221923828	-93.33520507812504	-373.7563781738281	600.277099609375	143.3756713867187	19.89772033691408	1046.066162109375	-150.4526824951172	70.48110961914065	1076.489379882812	-189.7058410644532	63.56846618652341	1065.952758789062	253.1220245361328	273.3404235839844	934.2769165039062	195.5431823730468	239.2849884033203	882.610595703125	-182.0769500732422	162.5286560058594	1358.364990234375	-14.48233222961432	41.87800598144532	1450.722412109375	-37.37860870361337	17.545352935791	1476.257690429688	94.8522415161132	-32.0240173339844	1325.997192382812	187.5476837158202	-59.97015380859374	1334.169311523438	-114.6002731323243	-81.91364288330078	1275.528930664062	40.31774139404288	316.4751281738281	925.3674926757812	-225.8394775390625	319.9396362304687	928.8719482421875	284.0962219238281	
